<svg width="34" height="34" viewBox="0 0 34 34" fill="none" xmlns="http://www.w3.org/2000/svg">
<path d="M34 17C34 26.3888 26.3888 34 17 34C7.61116 34 0 26.3888 0 17C0 7.61116 7.61116 0 17 0C26.3888 0 34 7.61116 34 17Z" fill="url(#paint0_linear_103_13)"/>
<path d="M7.5239 18.9819C8.36552 17.8873 9.9351 17.6823 11.0296 18.5239L16.5789 22.7908C17.6734 23.6324 17.8784 25.202 17.0368 26.2965C16.1952 27.3911 14.6256 27.5961 13.5311 26.7545L7.98187 22.4876C6.88732 21.646 6.68228 20.0764 7.5239 18.9819Z" fill="#C1C1C1"/>
<path d="M16.5239 6.98186C17.3655 5.88731 18.9351 5.68227 20.0296 6.52389L25.5789 10.7908C26.6734 11.6324 26.8784 13.202 26.0368 14.2965C25.1952 15.3911 23.6256 15.5961 22.5311 14.7545L16.9819 10.4876C15.8873 9.64599 15.6823 8.07641 16.5239 6.98186Z" fill="#C1C1C1"/>
<path d="M8.5239 9.98186C9.36552 8.88731 10.9351 8.68227 12.0296 9.52389L24.3273 18.9797C25.4218 19.8214 25.6268 21.3909 24.7852 22.4855C23.9436 23.58 22.374 23.7851 21.2795 22.9435L8.98187 13.4876C7.88732 12.646 7.68228 11.0764 8.5239 9.98186Z" fill="#A0A0A0"/>
<defs>
<linearGradient id="paint0_linear_103_13" x1="17" y1="0" x2="17" y2="34" gradientUnits="userSpaceOnUse">
<stop stop-color="#FFD600"/>
<stop offset="1" stop-color="#FED500" stop-opacity="0"/>
</linearGradient>
</defs>
</svg>
